{"title":"Robin Hood-AC3-XviD-R5-[Eng]2010 2Lions-Team","uid":5802558,"size":2412427852,"categoryP":"video","categoryS":"movies","magnet":"?xt=urn:btih:7f79d415fc3b5891f021e73702544c7ea9dbcaac&amp;dn=Robin+Hood-AC3-XviD-R5-%5BEng%5D2010+2Lions-Team&amp;tr=udp%3A%2F%2Ftracker.openbittorrent.com%3A80&amp;tr=udp%3A%2F%2Fopen.demonii.com%3A1337&amp;tr=udp%3A%2F%2Ftracker.coppersurfer.tk%3A6969&amp;tr=udp%3A%2F%2Fexodus.desync.com%3A6969","seeders":0,"leechers":0,"uploader":"FatFreddy31","files":-1,"time":1283314122,"description":"The story of an archer in the army of Richard Coeur de Lion who fights against the Norman invaders and becomes the legendary hero known as Robin Hood.\n &lt;a href=&quot;\nhttp://www.imdb.com/title/tt0955308/&quot; rel=&quot;nofollow&quot; target=&quot;_NEW&quot;&gt;\nhttp://www.imdb.com/title/tt0955308/&lt;/a&gt;\n\nSubtitles (srt) : Dutch, English.\n \nCovers included.\n\nHet legendarische verhaal over de ervaren boogschutter Robin Hood (Russell Crowe), die in dienst treedt bij het leger van koning Richard om tegen de Fransen te vechten. Na de dood van de koning vertrekt Robin naar Nottingham, een stad die lijdt onder de corruptie van een tirannieke schout en torenhoge belastingen. Daar valt hij voor de weduwe Lady Marian (Cate Blanchett), die de identiteit en de motieven van deze kruisridder niet volledig vertrouwt. In de hoop de hand van Lady Marian te winnen en de stedelingen te redden, brengt Robin een bende bij elkaar die uitblinkt in dodelijke vechttrucs en levenslust. Samen vallen ze de rijke bovenklasse aan om het onrecht te herstellen...\n &lt;a href=&quot;\nhttp://www.moviemeter.nl/film/57440&quot; rel=&quot;nofollow&quot; target=&quot;_NEW&quot;&gt;\nhttp://www.moviemeter.nl/film/57440&lt;/a&gt;\n\nOndertitels (srt) : Engels, Nederlands.\n\nGeneral\nComplete name                    : Robin Hood-AC3-XviD-R5-[Eng]2010 2Lions-Team\\Robin Hood-AC3-XviD-R5-[Eng]2010 2Lions-Team.avi\nFormat                           : AVI\nFormat/Info                      : Audio Video Interleave\nFormat profile                   : OpenDML\nFile size                        : 2.25 GiB\nDuration                         : 2h 29mn\nOverall bit rate                 : 2 151 Kbps\nWriting application              : VirtualDubMod 1.5.4.1 (build 2178/release)\nWriting library                  : VirtualDubMod build 2178/release\n\nVideo\nID                               : 0\nFormat                           : MPEG-4 Visual\nFormat profile                   : Simple@L3\nFormat settings, BVOP            : No\nFormat settings, QPel            : No\nFormat settings, GMC             : No warppoints\nFormat settings, Matrix          : Default (H.263)\nCodec ID                         : XVID\nCodec ID/Hint                    : XviD\nDuration                         : 2h 29mn\nBit rate                         : 1 755 Kbps\nWidth                            : 720 pixels\nHeight                           : 304 pixels\nDisplay aspect ratio             : 2.35:1\nFrame rate                       : 25.000 fps\nResolution                       : 8 bits\nColorimetry                      : 4:2:0\nScan type                        : Progressive\nBits/(Pixel*Frame)               : 0.321\nStream size                      : 1.83 GiB (82%)\nWriting library                  : XviD 1.1.2 (UTC 2006-11-01)\n\nAudio\nID                               : 1\nFormat                           : AC-3\nFormat/Info                      : Audio Coding 3\nFormat_Settings_ModeExtension    : CM (complete main)\nCodec ID                         : 2000\nDuration                         : 2h 29mn\nBit rate mode                    : Constant\nBit rate                         : 384 Kbps\nChannel(s)                       : 6 channels\nChannel positions                : Front: L C R, Side: L R, LFE\nSampling rate                    : 48.0 KHz\nStream size                      : 410 MiB (18%)\nAlignment                        : Split accross interleaves\nInterleave, duration             : 40 ms (1.00 video frame)\nInterleave, preload duration     : 500 ms\n\nBrought to you by \n2Lions Team\n\nmeer zien??\nKom dan eens kijken op ons forum \n                   \n2lions-site.nl\n\n2Lions the site to be for all your Dutch MOVIES and more\n\n******************************************\n\nDON T HIT AND RUN Niet gelijk afhaken als de FILM binnen is blijf seeden. \n\nDon`t quit after you finished the download, but keep seeding\n\nThere are fake torrents from uploaders who use our team name.\nThose are not ours, or members from our team.\nWe 2Lions-Team are not responsible for the fake posts on our name\n\nWij 2Lions-Team zijn niet verantwoordelijk voor die zieke FAKE posten die op onze naam worden gedaan\n\nPlease check our site !!!\n\nto the fakers , get a life !!!\t","torrent":{"xt":"urn:btih:7f79d415fc3b5891f021e73702544c7ea9dbcaac","amp;dn":"Robin+Hood-AC3-XviD-R5-%5BEng%5D2010+2Lions-Team","amp;tr":["udp%3A%2F%2Ftracker.openbittorrent.com%3A80","udp%3A%2F%2Fopen.demonii.com%3A1337","udp%3A%2F%2Ftracker.coppersurfer.tk%3A6969","udp%3A%2F%2Fexodus.desync.com%3A6969"],"infoHash":"7f79d415fc3b5891f021e73702544c7ea9dbcaac","infoHashBuffer":{"type":"Buffer","data":[127,121,212,21,252,59,88,145,240,33,231,55,2,84,76,126,169,219,202,172]},"announce":[],"urlList":[]}}